<svg width="128" height="128" viewBox="0 0 128 128" fill="none" xmlns="http://www.w3.org/2000/svg">
<path d="M19.072 27.952V16.816H108.928V27.952H19.072ZM19.072 48.56V37.424H108.928V48.56H70.528V79.92H57.472V48.56H19.072ZM64 108.848C52.992 108.848 42.368 106.544 34.304 101.936C23.808 95.92 19.328 88.368 16.256 79.152C9.856 77.104 5.12 72.752 5.12 64.432C5.12 57.264 8.832 50.992 15.232 50.992C18.56 50.992 20.096 52.272 21.12 53.296L18.56 56.624C17.28 55.728 16.256 55.216 14.976 55.216C11.392 55.216 9.216 59.44 9.216 64.176C9.216 71.216 13.184 74.672 19.072 75.44C22.144 87.728 28.672 94.256 38.016 99.12C44.416 102.448 53.376 104.624 64 104.624C74.624 104.624 83.584 102.448 89.984 99.12C99.328 94.256 105.856 87.728 108.928 75.44C114.816 74.672 118.784 71.216 118.784 64.176C118.784 59.44 116.608 55.216 113.024 55.216C111.744 55.216 110.72 55.728 109.44 56.624L106.88 53.296C107.904 52.272 109.44 50.992 112.768 50.992C119.168 50.992 122.88 57.264 122.88 64.432C122.88 72.752 118.144 77.104 111.744 79.152C108.672 88.368 104.192 95.92 93.696 101.936C85.632 106.544 75.008 108.848 64 108.848ZM35.968 77.616C30.208 77.616 25.472 72.88 25.472 67.12C25.472 65.584 25.856 64.048 26.24 63.152L22.144 60.72L23.68 58.288L27.776 60.592C28.288 59.952 28.928 59.312 29.568 58.8L27.136 54.832L29.696 53.296L32.128 57.392C32.64 57.136 34.048 56.752 34.56 56.752V52.016H37.376V56.752C37.888 56.752 39.296 57.136 39.808 57.392L42.24 53.296L44.8 54.832L42.368 58.8C43.008 59.312 43.648 59.952 44.16 60.592L48.256 58.288L49.792 60.72L45.696 63.152C46.08 64.048 46.464 65.584 46.464 67.12C46.464 72.88 41.728 77.616 35.968 77.616ZM81.536 67.12C81.536 65.584 81.92 64.048 82.304 63.152L78.208 60.72L79.744 58.288L83.84 60.592C84.352 59.952 84.992 59.312 85.632 58.8L83.2 54.832L85.76 53.296L88.192 57.392C88.704 57.136 90.112 56.752 90.624 56.752V52.016H93.44V56.752C93.952 56.752 95.36 57.136 95.872 57.392L98.304 53.296L100.864 54.832L98.432 58.8C99.072 59.312 99.712 59.952 100.224 60.592L104.32 58.288L105.856 60.72L101.76 63.152C102.144 64.048 102.528 65.584 102.528 67.12C102.528 72.88 97.792 77.616 92.032 77.616C86.272 77.616 81.536 72.88 81.536 67.12ZM35.968 73.392C39.424 73.392 42.24 70.576 42.24 67.12C42.24 63.664 39.424 60.848 35.968 60.848C32.512 60.848 29.696 63.664 29.696 67.12C29.696 70.576 32.512 73.392 35.968 73.392ZM85.76 67.12C85.76 70.576 88.576 73.392 92.032 73.392C95.488 73.392 98.304 70.576 98.304 67.12C98.304 63.664 95.488 60.848 92.032 60.848C88.576 60.848 85.76 63.664 85.76 67.12ZM64 98.736C51.712 98.736 42.752 94 37.888 81.456H42.496C45.696 90.416 53.376 94.768 64 94.768C74.624 94.768 82.304 90.416 85.504 81.456H90.112C85.248 94 76.288 98.736 64 98.736Z" fill="#CC0000"/>
</svg>
